<mxfile host="app.diagrams.net" agent="Mozilla/5.0 (X11; Linux x86_64; rv:128.0) Gecko/20100101 Firefox/128.0" version="28.2.7">
  <diagram name="Page-1" id="tVQ2zsrX4tonfTsZx9oV">
    <mxGraphModel dx="1264" dy="681" grid="1" gridSize="10" guides="1" tooltips="1" connect="1" arrows="1" fold="1" page="1" pageScale="1" pageWidth="850" pageHeight="1100" math="0" shadow="0">
      <root>
        <mxCell id="0" />
        <mxCell id="1" parent="0" />
        <mxCell id="z7RXZTkEaD0Vhav7NDnu-7" value="" style="rounded=0;whiteSpace=wrap;html=1;" parent="1" vertex="1">
          <mxGeometry x="40" y="40" width="950" height="390" as="geometry" />
        </mxCell>
        <mxCell id="z7RXZTkEaD0Vhav7NDnu-60" style="edgeStyle=orthogonalEdgeStyle;rounded=0;orthogonalLoop=1;jettySize=auto;html=1;exitX=1;exitY=0.75;exitDx=0;exitDy=0;dashed=1;dashPattern=1 2;endArrow=none;endFill=0;" parent="1" source="z7RXZTkEaD0Vhav7NDnu-22" target="z7RXZTkEaD0Vhav7NDnu-56" edge="1">
          <mxGeometry relative="1" as="geometry">
            <Array as="points">
              <mxPoint x="710" y="280" />
              <mxPoint x="910" y="280" />
              <mxPoint x="910" y="312" />
            </Array>
          </mxGeometry>
        </mxCell>
        <mxCell id="z7RXZTkEaD0Vhav7NDnu-61" value="I2C" style="edgeLabel;html=1;align=center;verticalAlign=middle;resizable=0;points=[];" parent="z7RXZTkEaD0Vhav7NDnu-60" vertex="1" connectable="0">
          <mxGeometry x="0.1837" y="-1" relative="1" as="geometry">
            <mxPoint x="-49" as="offset" />
          </mxGeometry>
        </mxCell>
        <mxCell id="z7RXZTkEaD0Vhav7NDnu-22" value="" style="rounded=0;whiteSpace=wrap;html=1;" parent="1" vertex="1">
          <mxGeometry x="380" y="207.08" width="330" height="212.92" as="geometry" />
        </mxCell>
        <mxCell id="z7RXZTkEaD0Vhav7NDnu-1" value="DJI Mavic Pro 4&lt;br&gt;&lt;b&gt;(edge)&lt;/b&gt;" style="shape=image;html=1;verticalAlign=top;verticalLabelPosition=bottom;labelBackgroundColor=#ffffff;imageAspect=0;aspect=fixed;image=https://icons.diagrams.net/icon-cache1/Vehicle-2569/Drone-790.svg" parent="1" vertex="1">
          <mxGeometry x="45" y="40" width="104" height="104" as="geometry" />
        </mxCell>
        <mxCell id="z7RXZTkEaD0Vhav7NDnu-5" value="Teltonika OTD 500&lt;div&gt;&lt;br&gt;&lt;/div&gt;" style="sketch=0;pointerEvents=1;shadow=0;dashed=0;html=1;strokeColor=none;fillColor=#505050;labelPosition=center;verticalLabelPosition=bottom;verticalAlign=top;outlineConnect=0;align=center;shape=mxgraph.office.devices.modem;" parent="1" vertex="1">
          <mxGeometry x="100" y="273.25" width="107.44" height="67.65" as="geometry" />
        </mxCell>
        <mxCell id="z7RXZTkEaD0Vhav7NDnu-9" style="edgeStyle=orthogonalEdgeStyle;rounded=0;orthogonalLoop=1;jettySize=auto;html=1;dashed=1;dashPattern=1 2;endArrow=none;endFill=0;exitX=0;exitY=0.5;exitDx=0;exitDy=0;" parent="1" source="z7RXZTkEaD0Vhav7NDnu-22" target="z7RXZTkEaD0Vhav7NDnu-5" edge="1">
          <mxGeometry relative="1" as="geometry">
            <mxPoint x="430" y="540" as="sourcePoint" />
            <Array as="points">
              <mxPoint x="380" y="307" />
            </Array>
          </mxGeometry>
        </mxCell>
        <mxCell id="z7RXZTkEaD0Vhav7NDnu-10" value="RJ45" style="edgeLabel;html=1;align=center;verticalAlign=middle;resizable=0;points=[];" parent="z7RXZTkEaD0Vhav7NDnu-9" vertex="1" connectable="0">
          <mxGeometry x="-0.2453" y="1" relative="1" as="geometry">
            <mxPoint as="offset" />
          </mxGeometry>
        </mxCell>
        <mxCell id="z7RXZTkEaD0Vhav7NDnu-11" style="edgeStyle=orthogonalEdgeStyle;rounded=0;orthogonalLoop=1;jettySize=auto;html=1;dashed=1;dashPattern=1 2;endArrow=none;endFill=0;exitX=1;exitY=0.5;exitDx=0;exitDy=0;" parent="1" source="z7RXZTkEaD0Vhav7NDnu-22" target="z7RXZTkEaD0Vhav7NDnu-8" edge="1">
          <mxGeometry relative="1" as="geometry" />
        </mxCell>
        <mxCell id="z7RXZTkEaD0Vhav7NDnu-12" value="I2C" style="edgeLabel;html=1;align=center;verticalAlign=middle;resizable=0;points=[];" parent="z7RXZTkEaD0Vhav7NDnu-11" vertex="1" connectable="0">
          <mxGeometry x="-0.2334" y="-2" relative="1" as="geometry">
            <mxPoint x="3" y="-2" as="offset" />
          </mxGeometry>
        </mxCell>
        <mxCell id="z7RXZTkEaD0Vhav7NDnu-2" value="RPI 5" style="shape=image;html=1;verticalAlign=top;verticalLabelPosition=bottom;labelBackgroundColor=#ffffff;imageAspect=0;aspect=fixed;image=https://icons.diagrams.net/icon-cache1/Fruit-2455/Fruit_iconfree_Filled_Outline_raspberry-healthy-organic-food-fruit_icon-896.svg" parent="1" vertex="1">
          <mxGeometry x="380" y="207.08" width="62" height="62" as="geometry" />
        </mxCell>
        <mxCell id="z7RXZTkEaD0Vhav7NDnu-8" value="Altimeter" style="image;aspect=fixed;html=1;points=[];align=center;fontSize=12;image=img/lib/azure2/other/Defender_Meter.svg;" parent="1" vertex="1">
          <mxGeometry x="856.25" y="292.28999999999996" width="42.5" height="42.5" as="geometry" />
        </mxCell>
        <mxCell id="z7RXZTkEaD0Vhav7NDnu-14" value="" style="rounded=0;whiteSpace=wrap;html=1;" parent="1" vertex="1">
          <mxGeometry x="40" y="590" width="800" height="410" as="geometry" />
        </mxCell>
        <mxCell id="z7RXZTkEaD0Vhav7NDnu-16" value="Directional Antenna" style="shape=image;html=1;verticalAlign=top;verticalLabelPosition=bottom;labelBackgroundColor=#ffffff;imageAspect=0;aspect=fixed;image=https://icons.diagrams.net/icon-cache1/Computer_Hardware_Line_vol_2-2898/signal__device__technology__radar__satellite__antenna__tower-1496.svg" parent="1" vertex="1">
          <mxGeometry x="230" y="660" width="52" height="52" as="geometry" />
        </mxCell>
        <mxCell id="z7RXZTkEaD0Vhav7NDnu-34" style="edgeStyle=orthogonalEdgeStyle;rounded=0;orthogonalLoop=1;jettySize=auto;html=1;" parent="1" source="z7RXZTkEaD0Vhav7NDnu-19" target="z7RXZTkEaD0Vhav7NDnu-5" edge="1">
          <mxGeometry relative="1" as="geometry">
            <Array as="points">
              <mxPoint x="480" y="252" />
              <mxPoint x="480" y="350" />
              <mxPoint x="330" y="350" />
              <mxPoint x="330" y="330" />
            </Array>
          </mxGeometry>
        </mxCell>
        <mxCell id="z7RXZTkEaD0Vhav7NDnu-35" value="&amp;nbsp;REST API" style="edgeLabel;html=1;align=center;verticalAlign=middle;resizable=0;points=[];" parent="z7RXZTkEaD0Vhav7NDnu-34" vertex="1" connectable="0">
          <mxGeometry x="0.9087" relative="1" as="geometry">
            <mxPoint x="16" as="offset" />
          </mxGeometry>
        </mxCell>
        <mxCell id="z7RXZTkEaD0Vhav7NDnu-36" value="&lt;b&gt;High Frequency &lt;br&gt;State Monitoring&lt;/b&gt;&lt;br&gt;polls (~2 second interval)" style="edgeLabel;html=1;align=center;verticalAlign=middle;resizable=0;points=[];" parent="z7RXZTkEaD0Vhav7NDnu-34" vertex="1" connectable="0">
          <mxGeometry x="-0.7961" y="-1" relative="1" as="geometry">
            <mxPoint x="-69" y="94" as="offset" />
          </mxGeometry>
        </mxCell>
        <mxCell id="z7RXZTkEaD0Vhav7NDnu-44" style="edgeStyle=orthogonalEdgeStyle;rounded=0;orthogonalLoop=1;jettySize=auto;html=1;entryX=0.5;entryY=0;entryDx=0;entryDy=0;" parent="1" source="z7RXZTkEaD0Vhav7NDnu-19" target="z7RXZTkEaD0Vhav7NDnu-43" edge="1">
          <mxGeometry relative="1" as="geometry" />
        </mxCell>
        <mxCell id="z7RXZTkEaD0Vhav7NDnu-57" style="edgeStyle=orthogonalEdgeStyle;rounded=0;orthogonalLoop=1;jettySize=auto;html=1;" parent="1" source="z7RXZTkEaD0Vhav7NDnu-19" target="z7RXZTkEaD0Vhav7NDnu-56" edge="1">
          <mxGeometry relative="1" as="geometry">
            <Array as="points">
              <mxPoint x="940" y="240" />
              <mxPoint x="940" y="315" />
            </Array>
          </mxGeometry>
        </mxCell>
        <mxCell id="z7RXZTkEaD0Vhav7NDnu-19" value="FastAPI service" style="shape=image;verticalLabelPosition=bottom;labelBackgroundColor=default;verticalAlign=top;aspect=fixed;imageAspect=0;editableCssRules=.*;image=data:image/svg+xml,PHN2ZyB4bWxucz0iaHR0cDovL3d3dy53My5vcmcvMjAwMC9zdmciIGZpbGw9Im5vbmUiIHZpZXdCb3g9IjIgMiAyNy45OTk3OTk3MjgzOTM1NTUgMjgiIGhlaWdodD0iNzAwIiB3aWR0aD0iNjk5Ljk5NDk5MzIwOTgzODkiPiYjeGE7PHBhdGggZmlsbD0idXJsKCNwYWludDBfbGluZWFyXzg3XzgyMDQpIiBkPSJNMTMuMDE2NCAyQzEwLjgxOTMgMiA5LjAzODI1IDMuNzI0NTMgOS4wMzgyNSA1Ljg1MTg1VjguNTE4NTJIMTUuOTIzNVY5LjI1OTI2SDUuOTc4MTRDMy43ODEwNyA5LjI1OTI2IDIgMTAuOTgzOCAyIDEzLjExMTFMMiAxOC44ODg5QzIgMjEuMDE2MiAzLjc4MTA3IDIyLjc0MDcgNS45NzgxNCAyMi43NDA3SDguMjczMjJWMTkuNDgxNUM4LjI3MzIyIDE3LjM1NDIgMTAuMDU0MyAxNS42Mjk2IDEyLjI1MTQgMTUuNjI5NkgxOS41OTU2QzIxLjQ1NDcgMTUuNjI5NiAyMi45NjE3IDE0LjE3MDQgMjIuOTYxNyAxMi4zNzA0VjUuODUxODVDMjIuOTYxNyAzLjcyNDUzIDIxLjE4MDcgMiAxOC45ODM2IDJIMTMuMDE2NFpNMTIuMDk4NCA2Ljc0MDc0QzEyLjg1ODkgNi43NDA3NCAxMy40NzU0IDYuMTQzNzggMTMuNDc1NCA1LjQwNzQxQzEzLjQ3NTQgNC42NzEwMyAxMi44NTg5IDQuMDc0MDcgMTIuMDk4NCA0LjA3NDA3QzExLjMzNzggNC4wNzQwNyAxMC43MjEzIDQuNjcxMDMgMTAuNzIxMyA1LjQwNzQxQzEwLjcyMTMgNi4xNDM3OCAxMS4zMzc4IDYuNzQwNzQgMTIuMDk4NCA2Ljc0MDc0WiIgY2xpcC1ydWxlPSJldmVub2RkIiBmaWxsLXJ1bGU9ImV2ZW5vZGQiLz4mI3hhOzxwYXRoIGZpbGw9InVybCgjcGFpbnQxX2xpbmVhcl84N184MjA0KSIgZD0iTTE4Ljk4MzQgMzBDMjEuMTgwNSAzMCAyMi45NjE2IDI4LjI3NTUgMjIuOTYxNiAyNi4xNDgyVjIzLjQ4MTVMMTYuMDc2MyAyMy40ODE1TDE2LjA3NjMgMjIuNzQwOEwyNi4wMjE3IDIyLjc0MDhDMjguMjE4OCAyMi43NDA4IDI5Ljk5OTggMjEuMDE2MiAyOS45OTk4IDE4Ljg4ODlWMTMuMTExMUMyOS45OTk4IDEwLjk4MzggMjguMjE4OCA5LjI1OTI4IDI2LjAyMTcgOS4yNTkyOEwyMy43MjY2IDkuMjU5MjhWMTIuNTE4NUMyMy43MjY2IDE0LjY0NTkgMjEuOTQ1NSAxNi4zNzA0IDE5Ljc0ODUgMTYuMzcwNEwxMi40MDQyIDE2LjM3MDRDMTAuNTQ1MSAxNi4zNzA0IDkuMDM4MDkgMTcuODI5NiA5LjAzODA5IDE5LjYyOTZMOS4wMzgwOSAyNi4xNDgyQzkuMDM4MDkgMjguMjc1NSAxMC44MTkyIDMwIDEzLjAxNjIgMzBIMTguOTgzNFpNMTkuOTAxNSAyNS4yNTkzQzE5LjE0MDkgMjUuMjU5MyAxOC41MjQ0IDI1Ljg1NjIgMTguNTI0NCAyNi41OTI2QzE4LjUyNDQgMjcuMzI5IDE5LjE0MDkgMjcuOTI1OSAxOS45MDE1IDI3LjkyNTlDMjAuNjYyIDI3LjkyNTkgMjEuMjc4NSAyNy4zMjkgMjEuMjc4NSAyNi41OTI2QzIxLjI3ODUgMjUuODU2MiAyMC42NjIgMjUuMjU5MyAxOS45MDE1IDI1LjI1OTNaIiBjbGlwLXJ1bGU9ImV2ZW5vZGQiIGZpbGwtcnVsZT0iZXZlbm9kZCIvPiYjeGE7PGRlZnM+JiN4YTs8bGluZWFyR3JhZGllbnQgZ3JhZGllbnRVbml0cz0idXNlclNwYWNlT25Vc2UiIHkyPSIyMi43NDA3IiB4Mj0iMTIuNDgwOSIgeTE9IjIiIHgxPSIxMi40ODA5IiBpZD0icGFpbnQwX2xpbmVhcl84N184MjA0Ij4mI3hhOzxzdG9wIHN0b3AtY29sb3I9IiMzMjdFQkQiLz4mI3hhOzxzdG9wIHN0b3AtY29sb3I9IiMxNTY1QTciIG9mZnNldD0iMSIvPiYjeGE7PC9saW5lYXJHcmFkaWVudD4mI3hhOzxsaW5lYXJHcmFkaWVudCBncmFkaWVudFVuaXRzPSJ1c2VyU3BhY2VPblVzZSIgeTI9IjMwIiB4Mj0iMTkuNTE5IiB5MT0iOS4yNTkyOCIgeDE9IjE5LjUxOSIgaWQ9InBhaW50MV9saW5lYXJfODdfODIwNCI+JiN4YTs8c3RvcCBzdG9wLWNvbG9yPSIjRkZEQTRCIi8+JiN4YTs8c3RvcCBzdG9wLWNvbG9yPSIjRjlDNjAwIiBvZmZzZXQ9IjEiLz4mI3hhOzwvbGluZWFyR3JhZGllbnQ+JiN4YTs8L2RlZnM+JiN4YTs8L3N2Zz4=;" parent="1" vertex="1">
          <mxGeometry x="520" y="230.00000000000006" width="44" height="44" as="geometry" />
        </mxCell>
        <mxCell id="z7RXZTkEaD0Vhav7NDnu-47" style="edgeStyle=orthogonalEdgeStyle;rounded=0;orthogonalLoop=1;jettySize=auto;html=1;exitX=0.75;exitY=0;exitDx=0;exitDy=0;entryX=1;entryY=0.75;entryDx=0;entryDy=0;" parent="1" source="z7RXZTkEaD0Vhav7NDnu-25" target="z7RXZTkEaD0Vhav7NDnu-19" edge="1">
          <mxGeometry relative="1" as="geometry">
            <mxPoint x="570" y="250" as="targetPoint" />
            <Array as="points">
              <mxPoint x="640" y="780" />
              <mxPoint x="640" y="263" />
            </Array>
          </mxGeometry>
        </mxCell>
        <mxCell id="z7RXZTkEaD0Vhav7NDnu-49" value="Start/End Measuring Session&lt;br&gt;Trigger Low Frequency Performance Benchmarking" style="edgeLabel;html=1;align=center;verticalAlign=middle;resizable=0;points=[];" parent="z7RXZTkEaD0Vhav7NDnu-47" vertex="1" connectable="0">
          <mxGeometry x="-0.6398" relative="1" as="geometry">
            <mxPoint y="1" as="offset" />
          </mxGeometry>
        </mxCell>
        <mxCell id="z7RXZTkEaD0Vhav7NDnu-25" value="" style="rounded=0;whiteSpace=wrap;html=1;" parent="1" vertex="1">
          <mxGeometry x="340" y="780" width="330" height="200" as="geometry" />
        </mxCell>
        <mxCell id="z7RXZTkEaD0Vhav7NDnu-52" style="edgeStyle=orthogonalEdgeStyle;rounded=0;orthogonalLoop=1;jettySize=auto;html=1;entryX=0.5;entryY=1;entryDx=0;entryDy=0;dashed=1;dashPattern=1 1;endArrow=none;endFill=0;" parent="1" source="z7RXZTkEaD0Vhav7NDnu-26" target="z7RXZTkEaD0Vhav7NDnu-16" edge="1">
          <mxGeometry relative="1" as="geometry" />
        </mxCell>
        <mxCell id="z7RXZTkEaD0Vhav7NDnu-26" value="RPI 5" style="shape=image;html=1;verticalAlign=top;verticalLabelPosition=bottom;labelBackgroundColor=#ffffff;imageAspect=0;aspect=fixed;image=https://icons.diagrams.net/icon-cache1/Fruit-2455/Fruit_iconfree_Filled_Outline_raspberry-healthy-organic-food-fruit_icon-896.svg" parent="1" vertex="1">
          <mxGeometry x="340" y="780" width="62" height="62" as="geometry" />
        </mxCell>
        <mxCell id="z7RXZTkEaD0Vhav7NDnu-28" value="Ground server&lt;br&gt;&lt;b&gt;(ground)&lt;/b&gt;" style="sketch=0;points=[[0,0,0],[0.25,0,0],[0.5,0,0],[0.75,0,0],[1,0,0],[0,1,0],[0.25,1,0],[0.5,1,0],[0.75,1,0],[1,1,0],[0,0.25,0],[0,0.5,0],[0,0.75,0],[1,0.25,0],[1,0.5,0],[1,0.75,0]];outlineConnect=0;fontColor=#232F3E;fillColor=#C925D1;strokeColor=#ffffff;dashed=0;verticalLabelPosition=bottom;verticalAlign=top;align=center;html=1;fontSize=12;fontStyle=0;aspect=fixed;shape=mxgraph.aws4.resourceIcon;resIcon=mxgraph.aws4.ground_station;" parent="1" vertex="1">
          <mxGeometry x="51" y="601" width="78" height="78" as="geometry" />
        </mxCell>
        <mxCell id="z7RXZTkEaD0Vhav7NDnu-21" value="InfluxDB" style="shape=image;verticalLabelPosition=bottom;labelBackgroundColor=default;verticalAlign=top;aspect=fixed;imageAspect=0;editableCssRules=.*;image=data:image/svg+xml,PHN2ZyB4bWxuczp4bGluaz0iaHR0cDovL3d3dy53My5vcmcvMTk5OS94bGluayIgeG1sbnM9Imh0dHA6Ly93d3cudzMub3JnLzIwMDAvc3ZnIiB4bWw6c3BhY2U9InByZXNlcnZlIiBzdHlsZT0iZW5hYmxlLWJhY2tncm91bmQ6bmV3IDAgMCA1MTIgNTEyOyIgdmlld0JveD0iNTUuNTkzMTcwMTY2MDE1NjI1IDUyLjg4MTA1MDEwOTg2MzI4IDQwMC43MDMzOTk2NTgyMDMxIDQwNi4xMDgwMzIyMjY1NjI1IiB5PSIwcHgiIHg9IjBweCIgaWQ9IkxheWVyXzEiIHZlcnNpb249IjEuMSIgd2lkdGg9IjQwMC43MDMzOTk2NTgyMDMxIiBoZWlnaHQ9IjQwNi4xMDgwMzIyMjY1NjI1Ij4mI3hhOzxzdHlsZSB0eXBlPSJ0ZXh0L2NzcyI+JiN4YTsJLnN0MHtmaWxsLXJ1bGU6ZXZlbm9kZDtjbGlwLXJ1bGU6ZXZlbm9kZDtmaWxsOiMwMjBBNDc7fSYjeGE7PC9zdHlsZT4mI3hhOzxnPiYjeGE7CTxwYXRoIGQ9Ik0zNTMuMywzMzMuMmw5NC41LTIxLjZjMS41LTAuMywyLjgtMC45LDQtMS43YzEuMi0wLjksMi4yLTIsMy0zLjJjMC44LTEuMywxLjMtMi43LDEuNC00LjImIzEwOyYjOTsmIzk7YzAuMi0xLjUsMC4xLTMtMC40LTQuNGwtNDAuMi0xNzMuN2MtMC43LTIuOS0yLjYtNS4zLTUuMS02LjhjLTIuNS0xLjUtNS42LTItOC41LTEuM2wtOTQuNSwyMS42Yy0yLjksMC43LTUuMywyLjYtNi44LDUuMSYjMTA7JiM5OyYjOTtjLTEuNSwyLjUtMiw1LjUtMS4yLDguNGw0MC4xLDE3My43YzAuNywyLjksMi42LDUuMyw1LjEsNi44QzM0Ny40LDMzMy40LDM1MC41LDMzMy45LDM1My4zLDMzMy4yeiIgY2xhc3M9InN0MCIvPiYjeGE7CTxwYXRoIGQ9Ik0zMjAuOCw0NDAuNWwxMTQuNi0xMDUuN2M0LjMtNC4zLDMuMi03LTIuNy00LjlsLTc4LjgsMTcuOGMtMy4zLDAuOC02LjMsMi40LTguNyw0LjcmIzEwOyYjOTsmIzk7Yy0yLjUsMi4zLTQuMyw1LjEtNS40LDguM2wtMjMuOSw3Ni42QzMxNC4yLDQ0My4yLDMxNi40LDQ0NC44LDMyMC44LDQ0MC41eiIgY2xhc3M9InN0MCIvPiYjeGE7CTxwYXRoIGQ9Ik0xMTEuNyw0MDZsMTcxLjYsNTIuOGMyLjksMC41LDYsMCw4LjUtMS40YzIuNi0xLjUsNC42LTMuOCw1LjYtNi42bDI4LjgtOTEuN2MwLjQtMS40LDAuNS0yLjksMC40LTQuNCYjMTA7JiM5OyYjOTtjLTAuMi0xLjUtMC42LTIuOS0xLjMtNC4ycy0xLjctMi41LTIuOS0zLjRjLTEuMi0wLjktMi41LTEuNi0zLjktMmwtMTcxLjYtNTIuM2MtMi45LTAuOC02LTAuNS04LjcsMWMtMi42LDEuNS00LjYsMy45LTUuNSw2LjgmIzEwOyYjOTsmIzk7TDEwNC4xLDM5MmMtMC44LDIuOS0wLjUsNS45LDAuOSw4LjZDMTA2LjQsNDAzLjIsMTA4LjgsNDA1LjEsMTExLjcsNDA2eiIgY2xhc3M9InN0MCIvPiYjeGE7CTxwYXRoIGQ9Ik01Ni4zLDIxOC4zTDkxLjEsMzcwYzEuMSw1LjksMy45LDUuOSw1LjQsMGwyMy45LTc2LjZjMC44LTMuMywwLjgtNi43LDAuMS05LjljLTAuOC0zLjMtMi4zLTYuMy00LjQtOC45JiMxMDsmIzk7JiM5O2wtNTQuOS01OUM1Ny40LDIxMS4xLDU0LjYsMjEyLjQsNTYuMywyMTguM3oiIGNsYXNzPSJzdDAiLz4mI3hhOwk8cGF0aCBkPSJNMTkwLjUsNTYuMUw1OSwxNzcuM2MtMi4xLDItMy4zLDQuNy0zLjQsNy42Yy0wLjEsMi45LDAuOSw1LjcsMi45LDcuOWw2NS43LDcwLjhjMiwyLjEsNC44LDMuNCw3LjgsMy41JiMxMDsmIzk7JiM5O2MzLDAuMSw1LjgtMSw4LTNsMTMxLjQtMTIxLjRjMi4xLTIsMy40LTQuNywzLjUtNy42cy0xLTUuNy0yLjktNy45bC02NS42LTcwLjhjLTEtMS4xLTIuMi0xLjktMy42LTIuNWMtMS4zLTAuNi0yLjgtMC45LTQuMy0xJiMxMDsmIzk7JiM5O3MtMi45LDAuMi00LjMsMC44QzE5Mi44LDU0LjMsMTkxLjUsNTUuMSwxOTAuNSw1Ni4xeiIgY2xhc3M9InN0MCIvPiYjeGE7CTxwYXRoIGQ9Ik0zMTcuNSwzMzAuNGM2LDEuNiw5LjgtMS42LDguMi03LjhsLTM4LTE2My45Yy0xLjYtNS45LTYuNS03LjYtMTAuOS0zLjNMMTUzLDI3MC4xYy00LjQsNC4zLTMuMyw5LjEsMi43LDEwLjgmIzEwOyYjOTsmIzk7TDMxNy41LDMzMC40eiIgY2xhc3M9InN0MCIvPiYjeGE7CTxwYXRoIGQ9Ik0zODIuMSwxMDEuOEwyMzIuMyw1Ni4xYy02LTEuNi03LDAuNS0yLjIsNS40bDU0LjksNTguOGMyLjUsMi4zLDUuNCw0LDguNyw0LjljMy4yLDAuOSw2LjcsMSwxMCwwLjQmIzEwOyYjOTsmIzk7bDc4LjgtMTcuOEMzODguMSwxMDYuMSwzODguMSwxMDMuNCwzODIuMSwxMDEuOHoiIGNsYXNzPSJzdDAiLz4mI3hhOzwvZz4mI3hhOzwvc3ZnPg==;" parent="1" vertex="1">
          <mxGeometry x="402" y="895.03" width="48.03" height="48.63" as="geometry" />
        </mxCell>
        <mxCell id="z7RXZTkEaD0Vhav7NDnu-39" style="edgeStyle=orthogonalEdgeStyle;rounded=0;orthogonalLoop=1;jettySize=auto;html=1;exitX=0;exitY=0.5;exitDx=0;exitDy=0;" parent="1" source="z7RXZTkEaD0Vhav7NDnu-29" target="z7RXZTkEaD0Vhav7NDnu-21" edge="1">
          <mxGeometry relative="1" as="geometry" />
        </mxCell>
        <mxCell id="z7RXZTkEaD0Vhav7NDnu-29" value="Grafana" style="shape=image;verticalLabelPosition=bottom;labelBackgroundColor=default;verticalAlign=top;aspect=fixed;imageAspect=0;editableCssRules=.*;image=data:image/svg+xml,PHN2ZyB4bWxuczp4bGluaz0iaHR0cDovL3d3dy53My5vcmcvMTk5OS94bGluayIgeG1sbnM9Imh0dHA6Ly93d3cudzMub3JnLzIwMDAvc3ZnIiB4bWw6c3BhY2U9InByZXNlcnZlIiBzdHlsZT0iZW5hYmxlLWJhY2tncm91bmQ6bmV3IDAgMCAzNTEgMzY1OyIgdmlld0JveD0iOC41IDEuMDAwMDAzODE0Njk3MjY1NiAzMzQuMDM0ODUxMDc0MjE4NzUgMzYyLjk5OTk2OTQ4MjQyMTkiIGhlaWdodD0iMzYyLjk5OTk2OTQ4MjQyMTkiIHdpZHRoPSIzMzQuMDM0ODUxMDc0MjE4NzUiIHk9IjBweCIgeD0iMHB4IiBpZD0iTGF5ZXJfMSIgdmVyc2lvbj0iMS4xIj4mI3hhOzxzdHlsZSB0eXBlPSJ0ZXh0L2NzcyI+JiN4YTsJLnN0MHtmaWxsOnVybCgjU1ZHSURfMV8pO30mI3hhOzwvc3R5bGU+JiN4YTs8ZyBpZD0iTGF5ZXJfMV8xXyI+JiN4YTs8L2c+JiN4YTs8bGluZWFyR3JhZGllbnQgeTI9Ijk5JSIgeDI9IjE3NS41IiB5MT0iMzAlIiB4MT0iMTc1LjUiIGdyYWRpZW50VW5pdHM9InVzZXJTcGFjZU9uVXNlIiBpZD0iU1ZHSURfMV8iPiYjeGE7CTxzdG9wIHN0eWxlPSJzdG9wLWNvbG9yOiNGMDVBMjgiIG9mZnNldD0iMCIvPiYjeGE7CTxzdG9wIHN0eWxlPSJzdG9wLWNvbG9yOiNGQkNBMEEiIG9mZnNldD0iMSIvPiYjeGE7PC9saW5lYXJHcmFkaWVudD4mI3hhOzxwYXRoIGQ9Ik0zNDIsMTYxLjJjLTAuNi02LjEtMS42LTEzLjEtMy42LTIwLjljLTItNy43LTUtMTYuMi05LjQtMjVjLTQuNC04LjgtMTAuMS0xNy45LTE3LjUtMjYuOCYjMTA7JiM5O2MtMi45LTMuNS02LjEtNi45LTkuNS0xMC4yYzUuMS0yMC4zLTYuMi0zNy45LTYuMi0zNy45Yy0xOS41LTEuMi0zMS45LDYuMS0zNi41LDkuNGMtMC44LTAuMy0xLjUtMC43LTIuMy0xJiMxMDsmIzk7Yy0zLjMtMS4zLTYuNy0yLjYtMTAuMy0zLjdjLTMuNS0xLjEtNy4xLTIuMS0xMC44LTNjLTMuNy0wLjktNy40LTEuNi0xMS4yLTIuMmMtMC43LTAuMS0xLjMtMC4yLTItMC4zJiMxMDsmIzk7Yy04LjUtMjcuMi0zMi45LTM4LjYtMzIuOS0zOC42Yy0yNy4zLDE3LjMtMzIuNCw0MS41LTMyLjQsNDEuNXMtMC4xLDAuNS0wLjMsMS40Yy0xLjUsMC40LTMsMC45LTQuNSwxLjNjLTIuMSwwLjYtNC4yLDEuNC02LjIsMi4yJiMxMDsmIzk7Yy0yLjEsMC44LTQuMSwxLjYtNi4yLDIuNWMtNC4xLDEuOC04LjIsMy44LTEyLjIsNmMtMy45LDIuMi03LjcsNC42LTExLjQsNy4xYy0wLjUtMC4yLTEtMC40LTEtMC40Yy0zNy44LTE0LjQtNzEuMywyLjktNzEuMywyLjkmIzEwOyYjOTtjLTMuMSw0MC4yLDE1LjEsNjUuNSwxOC43LDcwLjFjLTAuOSwyLjUtMS43LDUtMi41LDcuNWMtMi44LDkuMS00LjksMTguNC02LjIsMjguMWMtMC4yLDEuNC0wLjQsMi44LTAuNSw0LjImIzEwOyYjOTtDMTguOCwxOTIuNyw4LjUsMjI4LDguNSwyMjhjMjkuMSwzMy41LDYzLjEsMzUuNiw2My4xLDM1LjZjMCwwLDAuMS0wLjEsMC4xLTAuMWM0LjMsNy43LDkuMywxNSwxNC45LDIxLjljMi40LDIuOSw0LjgsNS42LDcuNCw4LjMmIzEwOyYjOTtjLTEwLjYsMzAuNCwxLjUsNTUuNiwxLjUsNTUuNmMzMi40LDEuMiw1My43LTE0LjIsNTguMi0xNy43YzMuMiwxLjEsNi41LDIuMSw5LjgsMi45YzEwLDIuNiwyMC4yLDQuMSwzMC40LDQuNSYjMTA7JiM5O2MyLjUsMC4xLDUuMSwwLjIsNy42LDAuMWwxLjIsMGwwLjgsMGwxLjYsMGwxLjYtMC4xbDAsMC4xYzE1LjMsMjEuOCw0Mi4xLDI0LjksNDIuMSwyNC45YzE5LjEtMjAuMSwyMC4yLTQwLjEsMjAuMi00NC40bDAsMCYjMTA7JiM5O2MwLDAsMC0wLjEsMC0wLjNjMC0wLjQsMC0wLjYsMC0wLjZsMCwwYzAtMC4zLDAtMC42LDAtMC45YzQtMi44LDcuOC01LjgsMTEuNC05LjFjNy42LTYuOSwxNC4zLTE0LjgsMTkuOS0yMy4zJiMxMDsmIzk7YzAuNS0wLjgsMS0xLjYsMS41LTIuNGMyMS42LDEuMiwzNi45LTEzLjQsMzYuOS0xMy40Yy0zLjYtMjIuNS0xNi40LTMzLjUtMTkuMS0zNS42bDAsMGMwLDAtMC4xLTAuMS0wLjMtMC4yJiMxMDsmIzk7Yy0wLjItMC4xLTAuMi0wLjItMC4yLTAuMmMwLDAsMCwwLDAsMGMtMC4xLTAuMS0wLjMtMC4yLTAuNS0wLjNjMC4xLTEuNCwwLjItMi43LDAuMy00LjFjMC4yLTIuNCwwLjItNC45LDAuMi03LjNsMC0xLjhsMC0wLjkmIzEwOyYjOTtsMC0wLjVjMC0wLjYsMC0wLjQsMC0wLjZsLTAuMS0xLjVsLTAuMS0yYzAtMC43LTAuMS0xLjMtMC4yLTEuOWMtMC4xLTAuNi0wLjEtMS4zLTAuMi0xLjlsLTAuMi0xLjlsLTAuMy0xLjkmIzEwOyYjOTtjLTAuNC0yLjUtMC44LTQuOS0xLjQtNy40Yy0yLjMtOS43LTYuMS0xOC45LTExLTI3LjJjLTUtOC4zLTExLjItMTUuNi0xOC4zLTIxLjhjLTctNi4yLTE0LjktMTEuMi0yMy4xLTE0LjkmIzEwOyYjOTtjLTguMy0zLjctMTYuOS02LjEtMjUuNS03LjJjLTQuMy0wLjYtOC42LTAuOC0xMi45LTAuN2wtMS42LDBsLTAuNCwwYy0wLjEsMC0wLjYsMC0wLjUsMGwtMC43LDBsLTEuNiwwLjFjLTAuNiwwLTEuMiwwLjEtMS43LDAuMSYjMTA7JiM5O2MtMi4yLDAuMi00LjQsMC41LTYuNSwwLjljLTguNiwxLjYtMTYuNyw0LjctMjMuOCw5Yy03LjEsNC4zLTEzLjMsOS42LTE4LjMsMTUuNmMtNSw2LTguOSwxMi43LTExLjYsMTkuNmMtMi43LDYuOS00LjIsMTQuMS00LjYsMjEmIzEwOyYjOTtjLTAuMSwxLjctMC4xLDMuNS0wLjEsNS4yYzAsMC40LDAsMC45LDAsMS4zbDAuMSwxLjRjMC4xLDAuOCwwLjEsMS43LDAuMiwyLjVjMC4zLDMuNSwxLDYuOSwxLjksMTAuMWMxLjksNi41LDQuOSwxMi40LDguNiwxNy40JiMxMDsmIzk7YzMuNyw1LDguMiw5LjEsMTIuOSwxMi40YzQuNywzLjIsOS44LDUuNSwxNC44LDdjNSwxLjUsMTAsMi4xLDE0LjcsMi4xYzAuNiwwLDEuMiwwLDEuNywwYzAuMywwLDAuNiwwLDAuOSwwYzAuMywwLDAuNiwwLDAuOS0wLjEmIzEwOyYjOTtjMC41LDAsMS0wLjEsMS41LTAuMWMwLjEsMCwwLjMsMCwwLjQtMC4xbDAuNS0wLjFjMC4zLDAsMC42LTAuMSwwLjktMC4xYzAuNi0wLjEsMS4xLTAuMiwxLjctMC4zYzAuNi0wLjEsMS4xLTAuMiwxLjYtMC40JiMxMDsmIzk7YzEuMS0wLjIsMi4xLTAuNiwzLjEtMC45YzItMC43LDQtMS41LDUuNy0yLjRjMS44LTAuOSwzLjQtMiw1LTNjMC40LTAuMywwLjktMC42LDEuMy0xYzEuNi0xLjMsMS45LTMuNywwLjYtNS4zJiMxMDsmIzk7Yy0xLjEtMS40LTMuMS0xLjgtNC43LTAuOWMtMC40LDAuMi0wLjgsMC40LTEuMiwwLjZjLTEuNCwwLjctMi44LDEuMy00LjMsMS44Yy0xLjUsMC41LTMuMSwwLjktNC43LDEuMmMtMC44LDAuMS0xLjYsMC4yLTIuNSwwLjMmIzEwOyYjOTtjLTAuNCwwLTAuOCwwLjEtMS4zLDAuMWMtMC40LDAtMC45LDAtMS4yLDBjLTAuNCwwLTAuOCwwLTEuMiwwYy0wLjUsMC0xLDAtMS41LTAuMWMwLDAtMC4zLDAtMC4xLDBsLTAuMiwwbC0wLjMsMCYjMTA7JiM5O2MtMC4yLDAtMC41LDAtMC43LTAuMWMtMC41LTAuMS0wLjktMC4xLTEuNC0wLjJjLTMuNy0wLjUtNy40LTEuNi0xMC45LTMuMmMtMy42LTEuNi03LTMuOC0xMC4xLTYuNmMtMy4xLTIuOC01LjgtNi4xLTcuOS05LjkmIzEwOyYjOTtjLTIuMS0zLjgtMy42LTgtNC4zLTEyLjRjLTAuMy0yLjItMC41LTQuNS0wLjQtNi43YzAtMC42LDAuMS0xLjIsMC4xLTEuOGMwLDAuMiwwLTAuMSwwLTAuMWwwLTAuMmwwLTAuNWMwLTAuMywwLjEtMC42LDAuMS0wLjkmIzEwOyYjOTtjMC4xLTEuMiwwLjMtMi40LDAuNS0zLjZjMS43LTkuNiw2LjUtMTksMTMuOS0yNi4xYzEuOS0xLjgsMy45LTMuNCw2LTQuOWMyLjEtMS41LDQuNC0yLjgsNi44LTMuOWMyLjQtMS4xLDQuOC0yLDcuNC0yLjcmIzEwOyYjOTtjMi41LTAuNyw1LjEtMS4xLDcuOC0xLjRjMS4zLTAuMSwyLjYtMC4yLDQtMC4yYzAuNCwwLDAuNiwwLDAuOSwwbDEuMSwwbDAuNywwYzAuMywwLDAsMCwwLjEsMGwwLjMsMGwxLjEsMC4xJiMxMDsmIzk7YzIuOSwwLjIsNS43LDAuNiw4LjUsMS4zYzUuNiwxLjIsMTEuMSwzLjMsMTYuMiw2LjFjMTAuMiw1LjcsMTguOSwxNC41LDI0LjIsMjUuMWMyLjcsNS4zLDQuNiwxMSw1LjUsMTYuOWMwLjIsMS41LDAuNCwzLDAuNSw0LjUmIzEwOyYjOTtsMC4xLDEuMWwwLjEsMS4xYzAsMC40LDAsMC44LDAsMS4xYzAsMC40LDAsMC44LDAsMS4xbDAsMWwwLDEuMWMwLDAuNy0wLjEsMS45LTAuMSwyLjZjLTAuMSwxLjYtMC4zLDMuMy0wLjUsNC45JiMxMDsmIzk7Yy0wLjIsMS42LTAuNSwzLjItMC44LDQuOGMtMC4zLDEuNi0wLjcsMy4yLTEuMSw0LjdjLTAuOCwzLjEtMS44LDYuMi0zLDkuM2MtMi40LDYtNS42LDExLjgtOS40LDE3LjEmIzEwOyYjOTtjLTcuNywxMC42LTE4LjIsMTkuMi0zMC4yLDI0LjdjLTYsMi43LTEyLjMsNC43LTE4LjgsNS43Yy0zLjIsMC42LTYuNSwwLjktOS44LDFsLTAuNiwwbC0wLjUsMGwtMS4xLDBsLTEuNiwwbC0wLjgsMCYjMTA7JiM5O2MwLjQsMC0wLjEsMC0wLjEsMGwtMC4zLDBjLTEuOCwwLTMuNS0wLjEtNS4zLTAuM2MtNy0wLjUtMTMuOS0xLjgtMjAuNy0zLjdjLTYuNy0xLjktMTMuMi00LjYtMTkuNC03LjgmIzEwOyYjOTtjLTEyLjMtNi42LTIzLjQtMTUuNi0zMi0yNi41Yy00LjMtNS40LTguMS0xMS4zLTExLjItMTcuNGMtMy4xLTYuMS01LjYtMTIuNi03LjQtMTkuMWMtMS44LTYuNi0yLjktMTMuMy0zLjQtMjAuMWwtMC4xLTEuM2wwLTAuMyYjMTA7JiM5O2wwLTAuM2wwLTAuNmwwLTEuMWwwLTAuM2wwLTAuNGwwLTAuOGwwLTEuNmwwLTAuM2MwLDAsMCwwLjEsMC0wLjFsMC0wLjZjMC0wLjgsMC0xLjcsMC0yLjVjMC4xLTMuMywwLjQtNi44LDAuOC0xMC4yJiMxMDsmIzk7YzAuNC0zLjQsMS02LjksMS43LTEwLjNjMC43LTMuNCwxLjUtNi44LDIuNS0xMC4yYzEuOS02LjcsNC4zLTEzLjIsNy4xLTE5LjNjNS43LTEyLjIsMTMuMS0yMy4xLDIyLTMxLjhjMi4yLTIuMiw0LjUtNC4yLDYuOS02LjImIzEwOyYjOTtjMi40LTEuOSw0LjktMy43LDcuNS01LjRjMi41LTEuNyw1LjItMy4yLDcuOS00LjZjMS4zLTAuNywyLjctMS40LDQuMS0yYzAuNy0wLjMsMS40LTAuNiwyLjEtMC45YzAuNy0wLjMsMS40LTAuNiwyLjEtMC45JiMxMDsmIzk7YzIuOC0xLjIsNS43LTIuMiw4LjctMy4xYzAuNy0wLjIsMS41LTAuNCwyLjItMC43YzAuNy0wLjIsMS41LTAuNCwyLjItMC42YzEuNS0wLjQsMy0wLjgsNC41LTEuMWMwLjctMC4yLDEuNS0wLjMsMi4zLTAuNSYjMTA7JiM5O2MwLjgtMC4yLDEuNS0wLjMsMi4zLTAuNWMwLjgtMC4xLDEuNS0wLjMsMi4zLTAuNGwxLjEtMC4ybDEuMi0wLjJjMC44LTAuMSwxLjUtMC4yLDIuMy0wLjNjMC45LTAuMSwxLjctMC4yLDIuNi0wLjMmIzEwOyYjOTtjMC43LTAuMSwxLjktMC4yLDIuNi0wLjNjMC41LTAuMSwxLjEtMC4xLDEuNi0wLjJsMS4xLTAuMWwwLjUtMC4xbDAuNiwwYzAuOS0wLjEsMS43LTAuMSwyLjYtMC4ybDEuMy0wLjFjMCwwLDAuNSwwLDAuMSwwbDAuMywwJiMxMDsmIzk7bDAuNiwwYzAuNywwLDEuNS0wLjEsMi4yLTAuMWMyLjktMC4xLDUuOS0wLjEsOC44LDBjNS44LDAuMiwxMS41LDAuOSwxNywxLjljMTEuMSwyLjEsMjEuNSw1LjYsMzEsMTAuMyYjMTA7JiM5O2M5LjUsNC42LDE3LjksMTAuMywyNS4zLDE2LjVjMC41LDAuNCwwLjksMC44LDEuNCwxLjJjMC40LDAuNCwwLjksMC44LDEuMywxLjJjMC45LDAuOCwxLjcsMS42LDIuNiwyLjRjMC45LDAuOCwxLjcsMS42LDIuNSwyLjQmIzEwOyYjOTtjMC44LDAuOCwxLjYsMS42LDIuNCwyLjVjMy4xLDMuMyw2LDYuNiw4LjYsMTBjNS4yLDYuNyw5LjQsMTMuNSwxMi43LDE5LjljMC4yLDAuNCwwLjQsMC44LDAuNiwxLjJjMC4yLDAuNCwwLjQsMC44LDAuNiwxLjImIzEwOyYjOTtjMC40LDAuOCwwLjgsMS42LDEuMSwyLjRjMC40LDAuOCwwLjcsMS41LDEuMSwyLjNjMC4zLDAuOCwwLjcsMS41LDEsMi4zYzEuMiwzLDIuNCw1LjksMy4zLDguNmMxLjUsNC40LDIuNiw4LjMsMy41LDExLjcmIzEwOyYjOTtjMC4zLDEuNCwxLjYsMi4zLDMsMi4xYzEuNS0wLjEsMi42LTEuMywyLjYtMi44QzM0Mi42LDE3MC40LDM0Mi41LDE2Ni4xLDM0MiwxNjEuMnoiIGNsYXNzPSJzdDAiLz4mI3hhOzwvc3ZnPg==;" parent="1" vertex="1">
          <mxGeometry x="570" y="890" width="54" height="58.69" as="geometry" />
        </mxCell>
        <mxCell id="z7RXZTkEaD0Vhav7NDnu-32" style="edgeStyle=orthogonalEdgeStyle;rounded=0;orthogonalLoop=1;jettySize=auto;html=1;entryX=1;entryY=0.5;entryDx=0;entryDy=0;" parent="1" source="z7RXZTkEaD0Vhav7NDnu-30" target="z7RXZTkEaD0Vhav7NDnu-29" edge="1">
          <mxGeometry relative="1" as="geometry" />
        </mxCell>
        <mxCell id="z7RXZTkEaD0Vhav7NDnu-41" value="see the data" style="edgeLabel;html=1;align=center;verticalAlign=middle;resizable=0;points=[];" parent="z7RXZTkEaD0Vhav7NDnu-32" vertex="1" connectable="0">
          <mxGeometry x="0.0391" y="-1" relative="1" as="geometry">
            <mxPoint as="offset" />
          </mxGeometry>
        </mxCell>
        <mxCell id="z7RXZTkEaD0Vhav7NDnu-48" style="edgeStyle=orthogonalEdgeStyle;rounded=0;orthogonalLoop=1;jettySize=auto;html=1;exitX=0.08;exitY=0.5;exitDx=0;exitDy=0;exitPerimeter=0;" parent="1" source="z7RXZTkEaD0Vhav7NDnu-30" edge="1">
          <mxGeometry relative="1" as="geometry">
            <mxPoint x="640" y="780" as="targetPoint" />
          </mxGeometry>
        </mxCell>
        <mxCell id="z7RXZTkEaD0Vhav7NDnu-30" value="" style="sketch=0;aspect=fixed;pointerEvents=1;shadow=0;dashed=0;html=1;strokeColor=none;labelPosition=center;verticalLabelPosition=bottom;verticalAlign=top;align=center;fillColor=#00188D;shape=mxgraph.azure.laptop" parent="1" vertex="1">
          <mxGeometry x="856.25" y="792" width="50" height="30" as="geometry" />
        </mxCell>
        <mxCell id="z7RXZTkEaD0Vhav7NDnu-31" value="User" style="shape=umlActor;verticalLabelPosition=bottom;verticalAlign=top;html=1;outlineConnect=0;" parent="1" vertex="1">
          <mxGeometry x="896.25" y="760" width="70" height="120" as="geometry" />
        </mxCell>
        <mxCell id="z7RXZTkEaD0Vhav7NDnu-45" style="edgeStyle=orthogonalEdgeStyle;rounded=0;orthogonalLoop=1;jettySize=auto;html=1;" parent="1" source="z7RXZTkEaD0Vhav7NDnu-43" target="z7RXZTkEaD0Vhav7NDnu-21" edge="1">
          <mxGeometry relative="1" as="geometry">
            <Array as="points">
              <mxPoint x="426" y="380" />
            </Array>
          </mxGeometry>
        </mxCell>
        <mxCell id="z7RXZTkEaD0Vhav7NDnu-46" value="replicates" style="edgeLabel;html=1;align=center;verticalAlign=middle;resizable=0;points=[];" parent="z7RXZTkEaD0Vhav7NDnu-45" vertex="1" connectable="0">
          <mxGeometry x="-0.2606" y="-1" relative="1" as="geometry">
            <mxPoint as="offset" />
          </mxGeometry>
        </mxCell>
        <mxCell id="z7RXZTkEaD0Vhav7NDnu-43" value="InfluxDB edge (lightweight version)" style="shape=image;verticalLabelPosition=bottom;labelBackgroundColor=default;verticalAlign=top;aspect=fixed;imageAspect=0;editableCssRules=.*;image=data:image/svg+xml,PHN2ZyB4bWxuczp4bGluaz0iaHR0cDovL3d3dy53My5vcmcvMTk5OS94bGluayIgeG1sbnM9Imh0dHA6Ly93d3cudzMub3JnLzIwMDAvc3ZnIiB4bWw6c3BhY2U9InByZXNlcnZlIiBzdHlsZT0iZW5hYmxlLWJhY2tncm91bmQ6bmV3IDAgMCA1MTIgNTEyOyIgdmlld0JveD0iNTUuNTkzMTcwMTY2MDE1NjI1IDUyLjg4MTA1MDEwOTg2MzI4IDQwMC43MDMzOTk2NTgyMDMxIDQwNi4xMDgwMzIyMjY1NjI1IiB5PSIwcHgiIHg9IjBweCIgaWQ9IkxheWVyXzEiIHZlcnNpb249IjEuMSIgd2lkdGg9IjQwMC43MDMzOTk2NTgyMDMxIiBoZWlnaHQ9IjQwNi4xMDgwMzIyMjY1NjI1Ij4mI3hhOzxzdHlsZSB0eXBlPSJ0ZXh0L2NzcyI+JiN4YTsJLnN0MHtmaWxsLXJ1bGU6ZXZlbm9kZDtjbGlwLXJ1bGU6ZXZlbm9kZDtmaWxsOiMwMjBBNDc7fSYjeGE7PC9zdHlsZT4mI3hhOzxnPiYjeGE7CTxwYXRoIGQ9Ik0zNTMuMywzMzMuMmw5NC41LTIxLjZjMS41LTAuMywyLjgtMC45LDQtMS43YzEuMi0wLjksMi4yLTIsMy0zLjJjMC44LTEuMywxLjMtMi43LDEuNC00LjImIzEwOyYjOTsmIzk7YzAuMi0xLjUsMC4xLTMtMC40LTQuNGwtNDAuMi0xNzMuN2MtMC43LTIuOS0yLjYtNS4zLTUuMS02LjhjLTIuNS0xLjUtNS42LTItOC41LTEuM2wtOTQuNSwyMS42Yy0yLjksMC43LTUuMywyLjYtNi44LDUuMSYjMTA7JiM5OyYjOTtjLTEuNSwyLjUtMiw1LjUtMS4yLDguNGw0MC4xLDE3My43YzAuNywyLjksMi42LDUuMyw1LjEsNi44QzM0Ny40LDMzMy40LDM1MC41LDMzMy45LDM1My4zLDMzMy4yeiIgY2xhc3M9InN0MCIvPiYjeGE7CTxwYXRoIGQ9Ik0zMjAuOCw0NDAuNWwxMTQuNi0xMDUuN2M0LjMtNC4zLDMuMi03LTIuNy00LjlsLTc4LjgsMTcuOGMtMy4zLDAuOC02LjMsMi40LTguNyw0LjcmIzEwOyYjOTsmIzk7Yy0yLjUsMi4zLTQuMyw1LjEtNS40LDguM2wtMjMuOSw3Ni42QzMxNC4yLDQ0My4yLDMxNi40LDQ0NC44LDMyMC44LDQ0MC41eiIgY2xhc3M9InN0MCIvPiYjeGE7CTxwYXRoIGQ9Ik0xMTEuNyw0MDZsMTcxLjYsNTIuOGMyLjksMC41LDYsMCw4LjUtMS40YzIuNi0xLjUsNC42LTMuOCw1LjYtNi42bDI4LjgtOTEuN2MwLjQtMS40LDAuNS0yLjksMC40LTQuNCYjMTA7JiM5OyYjOTtjLTAuMi0xLjUtMC42LTIuOS0xLjMtNC4ycy0xLjctMi41LTIuOS0zLjRjLTEuMi0wLjktMi41LTEuNi0zLjktMmwtMTcxLjYtNTIuM2MtMi45LTAuOC02LTAuNS04LjcsMWMtMi42LDEuNS00LjYsMy45LTUuNSw2LjgmIzEwOyYjOTsmIzk7TDEwNC4xLDM5MmMtMC44LDIuOS0wLjUsNS45LDAuOSw4LjZDMTA2LjQsNDAzLjIsMTA4LjgsNDA1LjEsMTExLjcsNDA2eiIgY2xhc3M9InN0MCIvPiYjeGE7CTxwYXRoIGQ9Ik01Ni4zLDIxOC4zTDkxLjEsMzcwYzEuMSw1LjksMy45LDUuOSw1LjQsMGwyMy45LTc2LjZjMC44LTMuMywwLjgtNi43LDAuMS05LjljLTAuOC0zLjMtMi4zLTYuMy00LjQtOC45JiMxMDsmIzk7JiM5O2wtNTQuOS01OUM1Ny40LDIxMS4xLDU0LjYsMjEyLjQsNTYuMywyMTguM3oiIGNsYXNzPSJzdDAiLz4mI3hhOwk8cGF0aCBkPSJNMTkwLjUsNTYuMUw1OSwxNzcuM2MtMi4xLDItMy4zLDQuNy0zLjQsNy42Yy0wLjEsMi45LDAuOSw1LjcsMi45LDcuOWw2NS43LDcwLjhjMiwyLjEsNC44LDMuNCw3LjgsMy41JiMxMDsmIzk7JiM5O2MzLDAuMSw1LjgtMSw4LTNsMTMxLjQtMTIxLjRjMi4xLTIsMy40LTQuNywzLjUtNy42cy0xLTUuNy0yLjktNy45bC02NS42LTcwLjhjLTEtMS4xLTIuMi0xLjktMy42LTIuNWMtMS4zLTAuNi0yLjgtMC45LTQuMy0xJiMxMDsmIzk7JiM5O3MtMi45LDAuMi00LjMsMC44QzE5Mi44LDU0LjMsMTkxLjUsNTUuMSwxOTAuNSw1Ni4xeiIgY2xhc3M9InN0MCIvPiYjeGE7CTxwYXRoIGQ9Ik0zMTcuNSwzMzAuNGM2LDEuNiw5LjgtMS42LDguMi03LjhsLTM4LTE2My45Yy0xLjYtNS45LTYuNS03LjYtMTAuOS0zLjNMMTUzLDI3MC4xYy00LjQsNC4zLTMuMyw5LjEsMi43LDEwLjgmIzEwOyYjOTsmIzk7TDMxNy41LDMzMC40eiIgY2xhc3M9InN0MCIvPiYjeGE7CTxwYXRoIGQ9Ik0zODIuMSwxMDEuOEwyMzIuMyw1Ni4xYy02LTEuNi03LDAuNS0yLjIsNS40bDU0LjksNTguOGMyLjUsMi4zLDUuNCw0LDguNyw0LjljMy4yLDAuOSw2LjcsMSwxMCwwLjQmIzEwOyYjOTsmIzk7bDc4LjgtMTcuOEMzODguMSwxMDYuMSwzODguMSwxMDMuNCwzODIuMSwxMDEuOHoiIGNsYXNzPSJzdDAiLz4mI3hhOzwvZz4mI3hhOzwvc3ZnPg==;" parent="1" vertex="1">
          <mxGeometry x="517.99" y="343.90000000000003" width="48.03" height="48.63" as="geometry" />
        </mxCell>
        <mxCell id="z7RXZTkEaD0Vhav7NDnu-56" value="GPS" style="shape=image;html=1;verticalAlign=top;verticalLabelPosition=bottom;labelBackgroundColor=#ffffff;imageAspect=0;aspect=fixed;image=https://icons.diagrams.net/icon-cache1/Internet_and_web-2794/internt_web_technology-08-1401.svg" parent="1" vertex="1">
          <mxGeometry x="921.46" y="290" width="44.79" height="44.79" as="geometry" />
        </mxCell>
        <mxCell id="z7RXZTkEaD0Vhav7NDnu-53" style="edgeStyle=orthogonalEdgeStyle;rounded=0;orthogonalLoop=1;jettySize=auto;html=1;exitX=1;exitY=0.5;exitDx=0;exitDy=0;" parent="1" source="z7RXZTkEaD0Vhav7NDnu-19" target="z7RXZTkEaD0Vhav7NDnu-8" edge="1">
          <mxGeometry relative="1" as="geometry">
            <Array as="points">
              <mxPoint x="564" y="240" />
              <mxPoint x="880" y="240" />
            </Array>
          </mxGeometry>
        </mxCell>
        <mxCell id="z7RXZTkEaD0Vhav7NDnu-54" value="polls (~2 second interval)" style="edgeLabel;html=1;align=center;verticalAlign=middle;resizable=0;points=[];" parent="z7RXZTkEaD0Vhav7NDnu-53" vertex="1" connectable="0">
          <mxGeometry x="-0.008" y="-3" relative="1" as="geometry">
            <mxPoint x="49" y="-5" as="offset" />
          </mxGeometry>
        </mxCell>
        <mxCell id="BoDriid02xEgL6uavKPb-1" value="Wi-Fi connection" style="text;html=1;whiteSpace=wrap;strokeColor=none;fillColor=none;align=center;verticalAlign=middle;rounded=0;" parent="1" vertex="1">
          <mxGeometry x="504" y="500" width="60" height="30" as="geometry" />
        </mxCell>
        <mxCell id="UNkQ_hmNMO4fpUvBpYbH-1" style="edgeStyle=orthogonalEdgeStyle;rounded=0;orthogonalLoop=1;jettySize=auto;html=1;" edge="1" parent="1" target="z7RXZTkEaD0Vhav7NDnu-5">
          <mxGeometry relative="1" as="geometry">
            <Array as="points">
              <mxPoint x="480" y="243" />
              <mxPoint x="480" y="140" />
              <mxPoint x="310" y="140" />
              <mxPoint x="310" y="290" />
            </Array>
            <mxPoint x="520" y="242.9" as="sourcePoint" />
            <mxPoint x="207" y="320.9" as="targetPoint" />
          </mxGeometry>
        </mxCell>
        <mxCell id="UNkQ_hmNMO4fpUvBpYbH-2" value="SSH + REST API" style="edgeLabel;html=1;align=center;verticalAlign=middle;resizable=0;points=[];" vertex="1" connectable="0" parent="UNkQ_hmNMO4fpUvBpYbH-1">
          <mxGeometry x="0.9087" relative="1" as="geometry">
            <mxPoint x="27" as="offset" />
          </mxGeometry>
        </mxCell>
        <mxCell id="UNkQ_hmNMO4fpUvBpYbH-4" value="&lt;b&gt;Low Frequency&lt;br&gt;Performance Benchmarking&lt;/b&gt;&lt;br&gt;polls every 60 seconds&lt;br&gt;or manual trigger&lt;div&gt;&lt;br&gt;&lt;/div&gt;" style="edgeLabel;html=1;align=center;verticalAlign=middle;resizable=0;points=[];labelBackgroundColor=default;" vertex="1" connectable="0" parent="UNkQ_hmNMO4fpUvBpYbH-1">
          <mxGeometry x="-0.1586" relative="1" as="geometry">
            <mxPoint x="5" as="offset" />
          </mxGeometry>
        </mxCell>
      </root>
    </mxGraphModel>
  </diagram>
</mxfile>
